# File created by Blade
# Date/Time:  Wed Jan 21 15:23:43 2015
# Frame Rate: 120.000 fps
#------------------------------------------------------
:FULLY-SPECIFIED
:DEGREES
1715
root 19.875896 35.587149 -21.712558 -173.736821 1.422621 -178.012448
Spine -14.045994 1.021034 1.873476
Head 7.639066 -0.066120 -1.122365
LeftShoulder -12.619375 -34.855904 20.328287
LeftArm 1.428386 1.485630 -5.635906
LeftForeArm 10.149806 -0.000000 -2.892784
LeftHand -9.872362 -0.000000 -6.094656
LeftHandThumb1 -26.253704 0.000000 33.147579
RightShoulder -11.001532 -2.812209 -11.687098
RightArm 6.745404 36.190170 10.311619
RightForeArm -35.345603 -0.000000 4.074612
RightHand -4.824084 -0.000000 10.904020
RightHandThumb1 -24.326973 -0.000000 -32.862282
LeftUpLeg 2.985530 11.439246 2.350719
LeftLeg -6.848683 -0.000000 0.000000
LeftFoot -20.158507 25.679907 -13.086752
LeftToeBase 26.381195 -0.000000 -0.000000
RightUpLeg 0.676344 -6.953205 1.243926
RightLeg -3.679599 -0.000000 0.000000
RightFoot -19.226989 -23.995412 14.809213
RightToeBase 23.565856 -0.000000 -0.000000
1716
root 19.873972 35.587312 -21.717196 -173.715071 1.398574 -178.012790
Spine -14.084033 1.016094 1.881730
Head 7.735233 -0.041258 -1.110994
LeftShoulder -12.633537 -34.864803 20.330615
LeftArm 1.444167 1.494115 -5.649469
LeftForeArm 10.158369 -0.000000 -2.873095
LeftHand -9.877639 -0.000000 -6.086052
LeftHandThumb1 -26.253704 0.000000 33.147579
RightShoulder -11.055759 -2.845101 -11.676407
RightArm 6.910969 36.602302 10.445575
RightForeArm -35.714148 -0.000000 3.992625
RightHand -4.766319 -0.000000 10.826683
RightHandThumb1 -24.326973 -0.000000 -32.862282
LeftUpLeg 2.967173 11.417628 2.345014
LeftLeg -6.850090 -0.000000 0.000000
LeftFoot -20.163599 25.679950 -13.102718
LeftToeBase 26.423178 -0.000000 -0.000000
RightUpLeg 0.658461 -6.944445 1.242048
RightLeg -3.666238 -0.000000 0.000000
RightFoot -19.249074 -24.004563 14.826958
RightToeBase 23.568217 -0.000000 -0.000000
1717
root 19.872685 35.586707 -21.722701 -173.705729 1.380543 -178.019830
Spine -14.112430 1.017210 1.878386
Head 7.828624 -0.047081 -1.109578
LeftShoulder -12.638455 -34.864246 20.324411
LeftArm 1.467027 1.514683 -5.661073
LeftForeArm 10.131078 -0.000000 -2.864345
LeftHand -9.875895 -0.000000 -6.069211
LeftHandThumb1 -26.253704 0.000000 33.147579
RightShoulder -11.042070 -2.787273 -11.672226
RightArm 6.819725 36.404349 10.385721
RightForeArm -35.512697 -0.000000 4.078327
RightHand -4.812721 -0.000000 10.827778
RightHandThumb1 -24.326973 -0.000000 -32.862282
LeftUpLeg 2.963682 11.414165 2.334923
LeftLeg -6.851260 -0.000000 0.000000
LeftFoot -20.171707 25.675743 -13.095098
LeftToeBase 26.551149 -0.000000 -0.000000
RightUpLeg 0.657563 -6.950222 1.234236
RightLeg -3.657344 -0.000000 0.000000
RightFoot -19.276181 -24.029359 14.770689
RightToeBase 23.667216 -0.000000 -0.000000
1718
root 19.875685 35.586461 -21.729475 -173.733713 1.326553 -178.012972
Spine -14.093464 0.978976 1.883336
Head 7.912009 -0.053462 -1.081903
LeftShoulder -12.628397 -34.908428 20.317755
LeftArm 1.464804 1.553578 -5.652560
LeftForeArm 10.107380 -0.000000 -2.852553
LeftHand -9.884223 0.000000 -6.060143
LeftHandThumb1 -26.253704 0.000000 33.147579
RightShoulder -11.050219 -2.788753 -11.631991
RightArm 6.831128 36.418170 10.371979
RightForeArm -35.438520 -0.000000 4.069136
RightHand -4.764491 -0.000000 10.784619
RightHandThumb1 -24.326973 -0.000000 -32.862282
LeftUpLeg 2.997050 11.374170 2.358976
LeftLeg -6.853562 -0.000000 0.000000
LeftFoot -20.179776 25.657805 -13.102873
LeftToeBase 26.454725 -0.000000 -0.000000
RightUpLeg 0.700331 -7.008866 1.244962
RightLeg -3.653236 -0.000000 0.000000
RightFoot -19.284106 -24.017919 14.776221
RightToeBase 23.665699 -0.000000 -0.000000
1719
root 19.876716 35.585787 -21.735268 -173.738206 1.284864 -178.014127
Spine -14.111065 0.953740 1.885083
Head 8.027856 -0.065979 -1.075395
LeftShoulder -12.619918 -34.893369 20.302949
LeftArm 1.474023 1.527542 -5.663638
LeftForeArm 10.105984 -0.000000 -2.838460
LeftHand -9.886069 -0.000000 -6.048781
LeftHandThumb1 -26.253704 0.000000 33.147579
RightShoulder -11.030430 -2.773726 -11.630626
RightArm 6.789672 36.350365 10.377212
RightForeArm -35.385292 -0.000000 4.142641
RightHand -4.917613 -0.000000 10.760943
RightHandThumb1 -24.326973 -0.000000 -32.862282
LeftUpLeg 3.002885 11.341867 2.363719
LeftLeg -6.849598 -0.000000 0.000000
LeftFoot -20.180078 25.657487 -13.096061
LeftToeBase 26.551483 -0.000000 -0.000000
RightUpLeg 0.718262 -7.028148 1.246464
RightLeg -3.649971 -0.000000 0.000000
RightFoot -19.309022 -24.020284 14.807395
RightToeBase 23.639505 -0.000000 -0.000000
1720
root 19.877917 35.585187 -21.739438 -173.738102 1.254678 -178.014807
Spine -14.127731 0.939626 1.880507
Head 8.119732 -0.073051 -1.026668
LeftShoulder -12.604366 -34.903313 20.290919
LeftArm 1.478064 1.538518 -5.667701
LeftForeArm 10.110838 -0.000000 -2.843945
LeftHand -9.873887 -0.000000 -6.051477
LeftHandThumb1 -26.253704 0.000000 33.147579
RightShoulder -11.011264 -2.761723 -11.601588
RightArm 6.755073 36.296643 10.338533
RightForeArm -35.326009 0.000000 4.111348
RightHand -4.829349 -0.000000 10.710366
RightHandThumb1 -24.326973 -0.000000 -32.862282
LeftUpLeg 3.002550 11.324888 2.367830
LeftLeg -6.847681 -0.000000 0.000000
LeftFoot -20.194736 25.646428 -13.100734
LeftToeBase 26.564262 -0.000000 -0.000000
RightUpLeg 0.718345 -7.051492 1.248354
RightLeg -3.628837 -0.000000 0.000000
RightFoot -19.334450 -24.014565 14.812449
RightToeBase 23.629623 -0.000000 -0.000000
1721
root 19.879843 35.584498 -21.743992 -173.733272 1.229807 -178.015041
Spine -14.151252 0.928149 1.870705
Head 8.215278 -0.072339 -0.974337
LeftShoulder -12.605632 -34.889836 20.304846
LeftArm 1.484031 1.536741 -5.717910
LeftForeArm 9.929171 -0.000000 -2.844408
LeftHand -9.898615 -0.000000 -5.897275
LeftHandThumb1 -26.253704 0.000000 33.147579
RightShoulder -10.967278 -2.697468 -11.585572
RightArm 6.664230 36.201643 10.290392
RightForeArm -35.304317 -0.000000 4.115309
RightHand -4.754942 -0.000000 10.728798
RightHandThumb1 -24.326973 -0.000000 -32.862282
LeftUpLeg 2.988928 11.345406 2.371026
LeftLeg -6.826638 -0.000000 0.000000
LeftFoot -20.201323 25.613272 -13.092828
LeftToeBase 26.571502 -0.000000 -0.000000
RightUpLeg 0.721823 -7.051314 1.252348
RightLeg -3.625285 -0.000000 0.000000
RightFoot -19.362198 -24.033541 14.816027
RightToeBase 23.666817 -0.000000 -0.000000
1722
root 19.880539 35.584202 -21.747064 -173.720591 1.208322 -178.016376
Spine -14.180173 0.924568 1.864464
Head 8.307806 -0.089841 -0.928134
LeftShoulder -12.595403 -34.909363 20.297984
LeftArm 1.485295 1.568344 -5.733914
LeftForeArm 9.912723 -0.000000 -2.852966
LeftHand -9.884655 -0.000000 -5.894173
LeftHandThumb1 -26.253704 0.000000 33.147579
RightShoulder -10.949987 -2.674702 -11.581990
RightArm 6.628253 36.137056 10.291454
RightForeArm -35.257624 -0.000000 4.115287
RightHand -4.688041 -0.000000 10.728730
RightHandThumb1 -24.326973 -0.000000 -32.862282
LeftUpLeg 2.969891 11.346382 2.370270
LeftLeg -6.812869 -0.000000 0.000000
LeftFoot -20.207631 25.602148 -13.088986
LeftToeBase 26.432376 -0.000000 -0.000000
RightUpLeg 0.702468 -7.072162 1.252970
RightLeg -3.598116 -0.000000 0.000000
RightFoot -19.376156 -24.030932 14.825817
RightToeBase 23.842078 -0.000000 -0.000000
1723
root 19.881073 35.583766 -21.750240 -173.709370 1.179011 -178.020569
Spine -14.209174 0.918412 1.860975
Head 8.399221 -0.104129 -0.912147
LeftShoulder -12.572278 -34.930684 20.261130
LeftArm 1.487813 1.587066 -5.716628
LeftForeArm 10.080897 -0.000000 -2.846648
LeftHand -9.873021 -0.000000 -6.000479
LeftHandThumb1 -26.253704 0.000000 33.147579
RightShoulder -10.950226 -2.704252 -11.557171
RightArm 6.652487 36.182361 10.313438
RightForeArm -35.371564 0.000000 4.074348
RightHand -4.647954 -0.000000 10.755758
RightHandThumb1 -24.326973 -0.000000 -32.862282
LeftUpLeg 2.950846 11.340056 2.366906
LeftLeg -6.799432 -0.000000 0.000000
LeftFoot -20.214383 25.583785 -13.092741
LeftToeBase 26.544112 -0.000000 -0.000000
RightUpLeg 0.689340 -7.098266 1.253504
RightLeg -3.574842 -0.000000 0.000000
RightFoot -19.390662 -23.960403 14.893513
RightToeBase 23.495767 -0.000000 -0.000000
1724
root 19.882007 35.583295 -21.752323 -173.702286 1.162343 -178.027096
Spine -14.225283 0.920621 1.845741
Head 8.462466 -0.130139 -0.878045
LeftShoulder -12.562763 -34.921298 20.251502
LeftArm 1.492376 1.545395 -5.743754
LeftForeArm 10.120292 -0.000000 -2.844333
LeftHand -9.878314 -0.000000 -5.991973
LeftHandThumb1 -26.253704 0.000000 33.147579
RightShoulder -10.949056 -2.689278 -11.536008
RightArm 6.673846 36.282991 10.352706
RightForeArm -35.443381 -0.000000 4.051992
RightHand -4.624344 0.000000 10.688488
RightHandThumb1 -24.326973 -0.000000 -32.862282
LeftUpLeg 2.933945 11.335349 2.361413
LeftLeg -6.779809 -0.000000 0.000000
LeftFoot -20.226080 25.576904 -13.086044
LeftToeBase 26.564330 -0.000000 -0.000000
RightUpLeg 0.676029 -7.089253 1.246643
RightLeg -3.553601 -0.000000 0.000000
RightFoot -19.418363 -24.009866 14.906183
RightToeBase 23.727613 -0.000000 -0.000000
